<?xml version="1.0" encoding="UTF-8" standalone="no"?>
<svg
   version="1.1"
   viewBox="0 0 32 32"
   id="svg10"
   sodipodi:docname="folder_type_java_opened.svg"
   inkscape:version="1.3.2 (091e20e, 2023-11-25, custom)"
   xmlns:inkscape="http://www.inkscape.org/namespaces/inkscape"
   xmlns:sodipodi="http://sodipodi.sourceforge.net/DTD/sodipodi-0.dtd"
   xmlns="http://www.w3.org/2000/svg"
   xmlns:svg="http://www.w3.org/2000/svg">
  <defs
     id="defs10" />
  <sodipodi:namedview
     id="namedview10"
     pagecolor="#ffffff"
     bordercolor="#000000"
     borderopacity="0.25"
     inkscape:showpageshadow="2"
     inkscape:pageopacity="0.0"
     inkscape:pagecheckerboard="0"
     inkscape:deskcolor="#d1d1d1"
     inkscape:zoom="25.65625"
     inkscape:cx="16"
     inkscape:cy="16"
     inkscape:window-width="1920"
     inkscape:window-height="1017"
     inkscape:window-x="1912"
     inkscape:window-y="-8"
     inkscape:window-maximized="1"
     inkscape:current-layer="svg10" />
  <title
     id="title1">folder_type_java_opened</title>
  <g
     id="g10">
    <path
       d="M27.4,5.5H18.2L16.1,9.7H4.3V26.5H29.5V5.5Zm0,18.7H6.6V11.8H27.4Zm0-14.5H19.2l1-2.1h7.1V9.7Z"
       fill="#5382a1"
       id="path1" />
    <polygon
       points="25.7 13.7 0.5 13.7 4.3 26.5 29.5 26.5"
       fill="#5382a1"
       id="polygon1" />
    <g
       transform="matrix(.75 0 0 .75 10.539 8.5)"
       fill="#d2d2d2"
       id="g9"
       style="fill:#ffffff;fill-opacity:1">
      <path
         d="m12.325 23.654s-1.07 0.622 0.761 0.833a16.023 16.023 0 0 0 5.8-0.246 10.088 10.088 0 0 0 1.541 0.752c-5.481 2.349-12.405-0.136-8.1-1.339"
         id="path2"
         style="fill:#ffffff;fill-opacity:1" />
      <path
         d="m11.656 20.588s-1.2 0.888 0.633 1.078a22.618 22.618 0 0 0 7.481-0.359 3.32 3.32 0 0 0 1.152 0.7c-6.627 1.938-14.009 0.153-9.266-1.421"
         id="path3"
         style="fill:#ffffff;fill-opacity:1" />
      <path
         d="m17.3 15.388a2.051 2.051 0 0 1-0.355 2.954s3.429-1.77 1.854-3.987c-1.471-2.067-2.6-3.095 3.508-6.636 0 0-9.586 2.394-5.007 7.669"
         id="path4"
         style="fill:#ffffff;fill-opacity:1" />
      <path
         d="m24.552 25.921s0.792 0.652-0.872 1.157c-3.164 0.958-13.168 1.248-15.948 0.038-1-0.435 0.874-1.038 1.464-1.164a3.8 3.8 0 0 1 0.966-0.108c-1.111-0.783-7.181 1.537-3.083 2.2 11.176 1.812 20.372-0.816 17.473-2.124"
         id="path5"
         style="fill:#ffffff;fill-opacity:1" />
      <path
         d="m12.84 17.412s-5.089 1.209-1.8 1.648a38.225 38.225 0 0 0 6.731-0.072c2.106-0.178 4.221-0.555 4.221-0.555a8.934 8.934 0 0 0-1.28 0.685c-5.168 1.359-15.151 0.727-12.277-0.663a9.629 9.629 0 0 1 4.407-1.042"
         id="path6"
         style="fill:#ffffff;fill-opacity:1" />
      <path
         d="m21.969 22.515c5.253-2.73 2.824-5.353 1.129-5a3.932 3.932 0 0 0-0.6 0.161 0.957 0.957 0 0 1 0.449-0.346c3.354-1.179 5.933 3.478-1.083 5.322a0.458 0.458 0 0 0 0.106-0.138"
         id="path7"
         style="fill:#ffffff;fill-opacity:1" />
      <path
         d="m18.8 2s2.909 2.91-2.759 7.386c-4.546 3.59-1.037 5.637 0 7.975-2.653-2.394-4.6-4.5-3.294-6.463 1.917-2.879 7.229-4.275 6.053-8.898"
         id="path8"
         style="fill:#ffffff;fill-opacity:1" />
      <path
         d="m13.356 29.912c5.042 0.323 12.786-0.179 12.969-2.565 0 0-0.353 0.9-4.167 1.623a41.458 41.458 0 0 1-12.76 0.2s0.645 0.533 3.959 0.746"
         id="path9"
         style="fill:#ffffff;fill-opacity:1" />
    </g>
  </g>
</svg>
