<?xml version="1.0" encoding="UTF-8" standalone="no"?>
<svg
   version="1.1"
   viewBox="0 0 32 32"
   id="svg4"
   sodipodi:docname="folder_type_dotnet_opened.svg"
   inkscape:version="1.3.2 (091e20e, 2023-11-25, custom)"
   xmlns:inkscape="http://www.inkscape.org/namespaces/inkscape"
   xmlns:sodipodi="http://sodipodi.sourceforge.net/DTD/sodipodi-0.dtd"
   xmlns="http://www.w3.org/2000/svg"
   xmlns:svg="http://www.w3.org/2000/svg">
  <defs
     id="defs4" />
  <sodipodi:namedview
     id="namedview4"
     pagecolor="#ffffff"
     bordercolor="#000000"
     borderopacity="0.25"
     inkscape:showpageshadow="2"
     inkscape:pageopacity="0.0"
     inkscape:pagecheckerboard="0"
     inkscape:deskcolor="#d1d1d1"
     inkscape:zoom="36.90625"
     inkscape:cx="16"
     inkscape:cy="16"
     inkscape:window-width="2560"
     inkscape:window-height="1377"
     inkscape:window-x="2552"
     inkscape:window-y="-8"
     inkscape:window-maximized="1"
     inkscape:current-layer="svg4" />
  <title
     id="title1">folder_type_dotnet_opened</title>
  <path
     d="m18.199 5.5-2.0996 4.1992h-11.799v4h-3.8008l3.8008 12.801h25.199v-21h-2.0996zm2 2.0996h7.1016v2.0996h-8.1016zm-13.6 4.2012h20.801v7.627l-1.7012-5.7285h-19.1z"
     fill="#dcb67a"
     id="path1" />
  <g
     transform="matrix(0.3125,0,0,0.3125,11,11)"
     id="g4">
    <circle
       cx="32"
       cy="32"
       r="32"
       fill="#5c2d91"
       id="circle1" />
    <g
       fill="#ffffff"
       id="g3">
      <path
         d="m 7.4,41.25 a 1.35,1.35 0 0 1 -1,-0.42 1.38,1.38 0 0 1 -0.41,-1 1.4,1.4 0 0 1 0.41,-1 1.34,1.34 0 0 1 1,-0.43 1.37,1.37 0 0 1 1,0.43 1.39,1.39 0 0 1 0.42,1 1.37,1.37 0 0 1 -0.42,1 1.38,1.38 0 0 1 -1,0.42 z M 27.27,41 H 24.65 L 15.28,26.46 A 6.06,6.06 0 0 1 14.7,25.32 h -0.08 a 18.71,18.71 0 0 1 0.1,2.5 V 41 H 12.59 V 22.77 h 2.77 l 9.12,14.28 q 0.57,0.89 0.74,1.22 h 0.05 A 19.29,19.29 0 0 1 25.14,35.59 V 22.77 h 2.13 z m 14.42,0 H 32 V 22.77 h 9.24 v 1.93 h -7.06 v 6.06 h 6.58 v 1.92 H 34.18 V 39 H 41.7 Z M 56,24.7 H 50.7 V 41 H 48.57 V 24.7 H 43.33 V 22.77 H 56 Z"
         id="path3" />
    </g>
  </g>
</svg>
